<svg width="166" height="188" viewBox="0 0 166 188" fill="none" xmlns="http://www.w3.org/2000/svg">
<path d="M3 185C3.66667 143 3 3 3 3H49V143H163V185H3Z" stroke="#00D8E0" stroke-width="5"/>
<path d="M106.42 102.42C104.763 102.42 103.235 102.117 101.835 101.51C100.458 100.88 99.3267 99.9933 98.44 98.85L101.59 95.07C102.92 96.8667 104.437 97.765 106.14 97.765C108.45 97.765 109.605 96.4117 109.605 93.705V82.05H100.995V77.5H115.24V93.39C115.24 96.4 114.493 98.6633 113 100.18C111.507 101.673 109.313 102.42 106.42 102.42Z" fill="#00D8E0"/>
<rect x="126.067" y="102" width="43.4951" height="17.347" transform="rotate(31.5126 126.067 102)" fill="#373A40"/>
<path fill-rule="evenodd" clip-rule="evenodd" d="M108 140C138.376 140 163 118.062 163 91C163 63.938 138.376 42 108 42C77.6243 42 53 63.938 53 91C53 118.062 77.6243 140 108 140ZM108 124C128.435 124 145 109.225 145 91C145 72.7746 128.435 58 108 58C87.5655 58 71 72.7746 71 91C71 109.225 87.5655 124 108 124Z" fill="#373A40"/>
</svg>
